<?xml version="1.0" encoding="UTF-8" standalone="no"?>
<svg
   xmlns:dc="http://purl.org/dc/elements/1.1/"
   xmlns:cc="http://creativecommons.org/ns#"
   xmlns:rdf="http://www.w3.org/1999/02/22-rdf-syntax-ns#"
   xmlns:svg="http://www.w3.org/2000/svg"
   xmlns="http://www.w3.org/2000/svg"
   xmlns:sodipodi="http://sodipodi.sourceforge.net/DTD/sodipodi-0.dtd"
   xmlns:inkscape="http://www.inkscape.org/namespaces/inkscape"
   width="105.83334mm"
   height="105.83334mm"
   viewBox="0 0 105.83333 105.83333"
   version="1.1"
   id="svg8"
   inkscape:version="1.0.1 (3bc2e813f5, 2020-09-07)"
   sodipodi:docname="avatar_voiture.svg">
  <defs
     id="defs2">
    <filter
       inkscape:collect="always"
       style="color-interpolation-filters:sRGB"
       id="filter5597"
       x="-1.9815951e-05"
       width="1.0000396"
       y="-1.8621186e-05"
       height="1.0000372">
      <feGaussianBlur
         inkscape:collect="always"
         stdDeviation="0.00054123599"
         id="feGaussianBlur5599" />
    </filter>
  </defs>
  <sodipodi:namedview
     id="base"
     pagecolor="#ffffff"
     bordercolor="#666666"
     borderopacity="1.0"
     inkscape:pageopacity="0.0"
     inkscape:pageshadow="2"
     inkscape:zoom="1.4"
     inkscape:cx="245.726"
     inkscape:cy="159.36152"
     inkscape:document-units="mm"
     inkscape:current-layer="layer2"
     inkscape:document-rotation="0"
     showgrid="false"
     fit-margin-top="0"
     fit-margin-left="0"
     fit-margin-right="0"
     fit-margin-bottom="0"
     inkscape:window-width="1920"
     inkscape:window-height="1017"
     inkscape:window-x="3832"
     inkscape:window-y="-8"
     inkscape:window-maximized="1" />
  <metadata
     id="metadata5">
    <rdf:RDF>
      <cc:Work
         rdf:about="">
        <dc:format>image/svg+xml</dc:format>
        <dc:type
           rdf:resource="http://purl.org/dc/dcmitype/StillImage" />
        <dc:title></dc:title>
      </cc:Work>
    </rdf:RDF>
  </metadata>
  <g
     inkscape:label="Arrière-plan"
     inkscape:groupmode="layer"
     id="layer1"
     transform="translate(0.26458359,0.66553116)"
     sodipodi:insensitive="true">
    <circle
       style="fill:#b11316;fill-opacity:1;stroke:none;stroke-width:0.488156;stroke-linecap:round;stroke-opacity:1"
       id="path833"
       cx="52.652084"
       cy="52.251137"
       r="52.916668" />
  </g>
  <g
     inkscape:groupmode="layer"
     id="layer2"
     inkscape:label="voiture"
     style="filter:url(#filter5597)"
     transform="translate(0.26458359,0.66553116)">
    <path
       style="fill:#ffffff;fill-opacity:1;stroke:none;stroke-width:0.274032px;stroke-linecap:butt;stroke-linejoin:miter;stroke-opacity:1"
       d="m 14.05464,56.668935 c 0,0 -3.816885,-0.293607 -5.3827867,-1.565902 C 7.1059522,53.830736 7.5463619,53.855205 7.5463619,53.855205 L 7.1304193,51.922295 7.1059522,49.52451 8.2803782,47.469264 7.2038211,47.175657 7.791034,43.945984 7.6931652,42.477952 8.1825094,42.086478 11.020705,42.551354 c 0,0 2.936066,-0.905287 10.667703,-1.247827 2.934653,0.163881 32.505296,-10.965718 51.576878,1.370164 6.217684,1.666023 9.775009,2.434846 9.775009,2.434846 0,0 10.45857,2.996773 13.322034,4.709579 2.171427,1.089973 3.816881,2.446721 3.816881,2.446721 l -0.587208,0.587211 -0.293606,3.621148 0.978684,0.489343 -1.957373,0.489345 -2.544592,0.782951 h -9.884749 c 0,0 1.915061,-11.498724 -7.609303,-11.64639 -9.468811,-0.146805 -7.658236,11.450653 -7.658236,11.450653 L 30.105129,57.549753 c 0,0 2.747174,-12.705361 -8.220983,-12.649547 -9.615613,0.04893 -7.829506,11.768729 -7.829506,11.768729 z"
       id="path5635"
       sodipodi:nodetypes="csccccccccccccccccccccsccsc" />
    <circle
       style="fill:#ffffff;fill-opacity:1;stroke:none;stroke-width:0.274463;stroke-linecap:round;stroke-opacity:1"
       id="path5637"
       cx="22.218494"
       cy="52.752907"
       r="7.3355942" />
    <circle
       style="fill:#ffffff;fill-opacity:1;stroke:none;stroke-width:1.00157;stroke-linecap:round;stroke-opacity:1;filter:url(#filter5597)"
       id="path5637-4"
       cx="26.769043"
       cy="26.769043"
       r="26.769043"
       transform="matrix(0.23784117,0,0,0.23784117,71.906729,47.078161)" />
  </g>
</svg>
