<?xml version="1.0" encoding="UTF-8" standalone="no"?>
<svg
   xmlns:dc="http://purl.org/dc/elements/1.1/"
   xmlns:cc="http://creativecommons.org/ns#"
   xmlns:rdf="http://www.w3.org/1999/02/22-rdf-syntax-ns#"
   xmlns:svg="http://www.w3.org/2000/svg"
   xmlns="http://www.w3.org/2000/svg"
   xmlns:sodipodi="http://sodipodi.sourceforge.net/DTD/sodipodi-0.dtd"
   xmlns:inkscape="http://www.inkscape.org/namespaces/inkscape"
   width="105.83334mm"
   height="105.83334mm"
   viewBox="0 0 105.83333 105.83333"
   version="1.1"
   id="svg8"
   inkscape:version="1.0.1 (3bc2e813f5, 2020-09-07)"
   sodipodi:docname="avatar_avion.svg">
  <defs
     id="defs2">
    <filter
       inkscape:collect="always"
       style="color-interpolation-filters:sRGB"
       id="filter5597"
       x="-1.9815951e-05"
       width="1.0000396"
       y="-1.8621186e-05"
       height="1.0000372">
      <feGaussianBlur
         inkscape:collect="always"
         stdDeviation="0.00054123599"
         id="feGaussianBlur5599" />
    </filter>
  </defs>
  <sodipodi:namedview
     id="base"
     pagecolor="#ffffff"
     bordercolor="#666666"
     borderopacity="1.0"
     inkscape:pageopacity="0.0"
     inkscape:pageshadow="2"
     inkscape:zoom="0.98994949"
     inkscape:cx="219.03015"
     inkscape:cy="145.42514"
     inkscape:document-units="mm"
     inkscape:current-layer="layer2"
     inkscape:document-rotation="0"
     showgrid="false"
     fit-margin-top="0"
     fit-margin-left="0"
     fit-margin-right="0"
     fit-margin-bottom="0"
     inkscape:window-width="1920"
     inkscape:window-height="1017"
     inkscape:window-x="3832"
     inkscape:window-y="-8"
     inkscape:window-maximized="1" />
  <metadata
     id="metadata5">
    <rdf:RDF>
      <cc:Work
         rdf:about="">
        <dc:format>image/svg+xml</dc:format>
        <dc:type
           rdf:resource="http://purl.org/dc/dcmitype/StillImage" />
        <dc:title></dc:title>
      </cc:Work>
    </rdf:RDF>
  </metadata>
  <g
     inkscape:label="Arrière-plan"
     inkscape:groupmode="layer"
     id="layer1"
     transform="translate(0.26458359,0.66553116)"
     sodipodi:insensitive="true">
    <circle
       style="fill:#113743;fill-opacity:1;stroke:none;stroke-width:0.488156;stroke-linecap:round;stroke-opacity:1"
       id="path833"
       cx="52.652084"
       cy="52.251137"
       r="52.916668" />
  </g>
  <g
     inkscape:groupmode="layer"
     id="layer2"
     inkscape:label="avion"
     style="filter:url(#filter5597)"
     transform="translate(0.26458359,0.66553116)">
    <path
       style="fill:#e4e3db;fill-opacity:1;stroke:none;stroke-width:0.265;stroke-linecap:round;stroke-linejoin:round;stroke-miterlimit:4;stroke-dasharray:none;stroke-opacity:1"
       d="m 29.402333,51.452026 -5.211755,1.469983 -4.944487,5.211754 -0.801808,-0.400905 -6.147199,5.479026 8.018086,3.34087 28.33057,-8.285355 c 0,0 12.428032,3.073598 13.363475,3.073598 0.935445,0 5.479026,-0.133633 5.479026,-0.133633 l 1.603618,-2.405427 17.639787,3.474505 3.474505,-0.133636 c 0,0 6.467486,0.04934 6.848782,-0.935442 -0.01772,-1.55336 -7.111124,-4.252491 -10.022607,-6.180608 -3.0563,-2.941833 -5.951234,-4.602746 -7.483549,-5.311982 -1.532315,-0.709236 -8.018084,-1.637027 -8.018084,-1.637027 l -6.535097,-1.793168 -0.755952,-13.607143 -7.465031,-1.984375 -7.46503,5.102678 3.023811,0.472471 h -3.307291 l -6.236608,3.779761 -2.834822,-0.283482 0.944941,-5.38616 -3.874257,-0.566965 -12.000743,6.898065 4.346726,1.322917 -1.322917,0.566965 -0.850446,1.039434 0.47247,0.850448 -9.732887,0.944938 -8.6934517,7.276042 c 0,0 -1.5119048,1.606399 3.6852677,1.039436 5.197173,-0.566965 13.985119,-3.590774 13.985119,-3.590774 z"
       id="path5700"
       sodipodi:nodetypes="cccccccscccccczccccccccccccccccccscc" />
    <path
       style="fill:#c5beba;fill-opacity:1;stroke:none;stroke-width:0.264583px;stroke-linecap:butt;stroke-linejoin:miter;stroke-opacity:1"
       d="M 12.834882,36.457197 24.363155,47.701989 34.190537,49.497377 18.504525,37.402138 Z"
       id="path5702" />
    <path
       style="fill:#c5beba;fill-opacity:1;stroke:none;stroke-width:0.264583px;stroke-linecap:butt;stroke-linejoin:miter;stroke-opacity:1"
       d="M 29.087857,26.157346 35.229971,27.38577 43.828929,42.221335 33.056607,40.23696 Z"
       id="path5704" />
    <path
       style="fill:#c5beba;fill-opacity:1;stroke:none;stroke-width:0.264583px;stroke-linecap:butt;stroke-linejoin:miter;stroke-opacity:1"
       d="m 71.942466,48.046153 v 0 l -0.912701,0.380196 0.259857,2.598584 7.748514,4.606586 c 0,0 5.409784,0.283483 5.716889,0.165365 0.307104,-0.118118 1.771764,-0.543341 1.771764,-0.755952 0,-0.212614 -0.02363,-0.543343 -0.02363,-0.543343 -2.388865,-2.631784 -3.734491,-3.646738 -6.408979,-4.730887 -2.674488,-1.084149 -5.479021,-1.296405 -8.151714,-1.720549 z"
       id="path5706"
       sodipodi:nodetypes="cccccssczc" />
  </g>
</svg>
