<?xml version="1.0" encoding="UTF-8" standalone="no"?>
<svg
   xmlns:dc="http://purl.org/dc/elements/1.1/"
   xmlns:cc="http://creativecommons.org/ns#"
   xmlns:rdf="http://www.w3.org/1999/02/22-rdf-syntax-ns#"
   xmlns:svg="http://www.w3.org/2000/svg"
   xmlns="http://www.w3.org/2000/svg"
   xmlns:sodipodi="http://sodipodi.sourceforge.net/DTD/sodipodi-0.dtd"
   xmlns:inkscape="http://www.inkscape.org/namespaces/inkscape"
   width="105.83334mm"
   height="105.83334mm"
   viewBox="0 0 105.83333 105.83333"
   version="1.1"
   id="svg8"
   inkscape:version="1.0.1 (3bc2e813f5, 2020-09-07)"
   sodipodi:docname="avatar_montagne.svg">
  <defs
     id="defs2">
    <filter
       inkscape:collect="always"
       style="color-interpolation-filters:sRGB"
       id="filter5597"
       x="-1.9815951e-05"
       width="1.0000396"
       y="-1.8621186e-05"
       height="1.0000372">
      <feGaussianBlur
         inkscape:collect="always"
         stdDeviation="0.00054123599"
         id="feGaussianBlur5599" />
    </filter>
  </defs>
  <sodipodi:namedview
     id="base"
     pagecolor="#ffffff"
     bordercolor="#666666"
     borderopacity="1.0"
     inkscape:pageopacity="0.0"
     inkscape:pageshadow="2"
     inkscape:zoom="1.4"
     inkscape:cx="246.08983"
     inkscape:cy="139.47503"
     inkscape:document-units="mm"
     inkscape:current-layer="layer1"
     inkscape:document-rotation="0"
     showgrid="false"
     fit-margin-top="0"
     fit-margin-left="0"
     fit-margin-right="0"
     fit-margin-bottom="0"
     inkscape:window-width="1920"
     inkscape:window-height="1017"
     inkscape:window-x="3832"
     inkscape:window-y="-8"
     inkscape:window-maximized="1" />
  <metadata
     id="metadata5">
    <rdf:RDF>
      <cc:Work
         rdf:about="">
        <dc:format>image/svg+xml</dc:format>
        <dc:type
           rdf:resource="http://purl.org/dc/dcmitype/StillImage" />
        <dc:title></dc:title>
      </cc:Work>
    </rdf:RDF>
  </metadata>
  <g
     inkscape:label="Arrière-plan"
     inkscape:groupmode="layer"
     id="layer1"
     transform="translate(0.26458359,0.66553116)">
    <circle
       style="fill:#2a3132;fill-opacity:1;stroke:none;stroke-width:0.488156;stroke-linecap:round;stroke-opacity:1"
       id="path833"
       cx="52.652084"
       cy="52.251137"
       r="52.916668" />
    <path
       style="fill:#90afc5;stroke:none;stroke-width:0.264583px;stroke-linecap:butt;stroke-linejoin:miter;stroke-opacity:1;fill-opacity:1"
       d="m 2.1408421,56.262877 5.6126599,-6.681737 4.409947,-4.009044 3.875408,-0.935442 c 0,0 5.87993,-4.944488 6.815373,-4.810852 0.935444,0.133635 2.004522,1.336347 2.004522,1.336347 l 2.539061,-0.400905 9.220797,2.539061 h 1.202714 l -2.271792,9.488069 -7.884451,6.280832 -0.935442,3.34087 z"
       id="path5676" />
    <path
       style="fill:#336b87;stroke:none;stroke-width:0.264583px;stroke-linecap:butt;stroke-linejoin:miter;stroke-opacity:1;fill-opacity:1"
       d="m 55.461113,35.148585 -8.819896,2.138156 -4.543581,3.741774 -1.304557,0.261311 -2.362351,1.700892 -2.173364,10.158111 -7.89025,6.307476 -0.850448,3.141927 8.968311,-5.39991 8.418989,-2.672697 4.944486,-3.073598 0.801809,-2.672696 3.875407,-2.80633 0.677754,0.301384 3.779761,3.071059 h 0.661458 l 1.74814,1.889879 1.417412,0.944941 2.598587,2.811197 2.929313,1.511906 -3.685267,-8.976934 -1.889879,-6.3311 -1.27567,-0.992188 -0.377976,0.02363 -3.094681,-2.315104 z"
       id="path5678" />
    <path
       style="fill:#90afc5;stroke:none;stroke-width:0.264583px;stroke-linecap:butt;stroke-linejoin:miter;stroke-opacity:1;fill-opacity:1"
       d="m 63.679651,42.364862 1.503389,0.367496 0.801809,0.367496 0.634765,-0.100227 0.968854,1.236123 3.942225,1.937702 2.539061,2.238383 2.00452,1.837478 2.772921,2.204974 2.873147,2.706103 0.668176,1.403165 c 0,0 0.567947,0.334086 0.801807,0.434313 0.233862,0.100227 2.839738,3.374279 2.839738,3.374279 l 1.703845,1.23612 -9.788747,-0.367495 -8.92012,-4.510173 z"
       id="path5680" />
    <path
       style="fill:#336b87;stroke:none;stroke-width:0.264583px;stroke-linecap:butt;stroke-linejoin:miter;stroke-opacity:1;fill-opacity:1"
       d="m 81.78716,39.157628 -4.677217,2.80633 -2.605878,1.135896 -1.269529,1.403164 -1.135896,1.135896 4.64213,4.193281 3.106504,2.535138 2.487454,2.298469 0.709002,1.424154 1.098494,0.496094 2.645833,3.366349 2.267858,1.771764 c 0,0 5.426548,-0.5168 6.896531,-0.115896 1.469983,0.400905 6.013564,0.601358 6.013564,0.601358 l -2.605879,-5.479026 -3.207234,-3.942225 c 0,0 0.334087,-1.135896 -0.133636,-1.737252 -0.467719,-0.601358 -2.405425,-2.672696 -2.405425,-2.672696 l -2.405425,-5.612659 -2.004523,-1.870887 -2.071338,-2.204974 -1.069078,0.467722 -1.069078,1.469983 -1.737251,-1.870887 z"
       id="path5682"
       sodipodi:nodetypes="ccccccccccccscccscccccccc" />
    <path
       style="fill:#ffffff;stroke:none;stroke-width:0.264583px;stroke-linecap:butt;stroke-linejoin:miter;stroke-opacity:1;fill-opacity:1"
       d="m 28.532478,63.047079 c 0,0 8.22098,-5.173548 8.362723,-5.24442 0.141739,-0.07087 8.48084,-2.598586 8.48084,-2.598586 l 5.338913,-3.401785 0.661458,-2.905691 3.236421,-2.196987 3.992374,3.260045 0.897695,0.118116 1.511903,1.748141 1.488281,0.944941 2.338729,2.504091 12.44959,6.461032 -22.560454,3.271856 z"
       id="path5684" />
  </g>
  <g
     inkscape:groupmode="layer"
     id="layer2"
     inkscape:label="montagne"
     style="filter:url(#filter5597)"
     transform="translate(0.26458359,0.66553116)" />
</svg>
